<?xml version="1.0" encoding="utf-8"?>
<svg xmlns="http://www.w3.org/2000/svg" xmlns:xlink="http://www.w3.org/1999/xlink" style="margin: auto; background: rgb(255, 255, 255); display: block; shape-rendering: auto;" width="217px" height="217px" viewBox="0 0 100 100" preserveAspectRatio="xMidYMid">
<g transform="rotate(0 50 50)">
  <rect x="45.5" y="29" rx="4.5" ry="6" width="9" height="12" fill="#77fe71">
    <animate attributeName="opacity" values="1;0" keyTimes="0;1" dur="1.639344262295082s" begin="-1.6155856497980519s" repeatCount="indefinite"></animate>
  </rect>
</g><g transform="rotate(5.217391304347826 50 50)">
  <rect x="45.5" y="29" rx="4.5" ry="6" width="9" height="12" fill="#77fe71">
    <animate attributeName="opacity" values="1;0" keyTimes="0;1" dur="1.639344262295082s" begin="-1.5918270373010217s" repeatCount="indefinite"></animate>
  </rect>
</g><g transform="rotate(10.434782608695652 50 50)">
  <rect x="45.5" y="29" rx="4.5" ry="6" width="9" height="12" fill="#77fe71">
    <animate attributeName="opacity" values="1;0" keyTimes="0;1" dur="1.639344262295082s" begin="-1.5680684248039916s" repeatCount="indefinite"></animate>
  </rect>
</g><g transform="rotate(15.652173913043478 50 50)">
  <rect x="45.5" y="29" rx="4.5" ry="6" width="9" height="12" fill="#77fe71">
    <animate attributeName="opacity" values="1;0" keyTimes="0;1" dur="1.639344262295082s" begin="-1.5443098123069614s" repeatCount="indefinite"></animate>
  </rect>
</g><g transform="rotate(20.869565217391305 50 50)">
  <rect x="45.5" y="29" rx="4.5" ry="6" width="9" height="12" fill="#77fe71">
    <animate attributeName="opacity" values="1;0" keyTimes="0;1" dur="1.639344262295082s" begin="-1.5205511998099313s" repeatCount="indefinite"></animate>
  </rect>
</g><g transform="rotate(26.08695652173913 50 50)">
  <rect x="45.5" y="29" rx="4.5" ry="6" width="9" height="12" fill="#77fe71">
    <animate attributeName="opacity" values="1;0" keyTimes="0;1" dur="1.639344262295082s" begin="-1.496792587312901s" repeatCount="indefinite"></animate>
  </rect>
</g><g transform="rotate(31.304347826086957 50 50)">
  <rect x="45.5" y="29" rx="4.5" ry="6" width="9" height="12" fill="#77fe71">
    <animate attributeName="opacity" values="1;0" keyTimes="0;1" dur="1.639344262295082s" begin="-1.473033974815871s" repeatCount="indefinite"></animate>
  </rect>
</g><g transform="rotate(36.52173913043478 50 50)">
  <rect x="45.5" y="29" rx="4.5" ry="6" width="9" height="12" fill="#77fe71">
    <animate attributeName="opacity" values="1;0" keyTimes="0;1" dur="1.639344262295082s" begin="-1.4492753623188408s" repeatCount="indefinite"></animate>
  </rect>
</g><g transform="rotate(41.73913043478261 50 50)">
  <rect x="45.5" y="29" rx="4.5" ry="6" width="9" height="12" fill="#77fe71">
    <animate attributeName="opacity" values="1;0" keyTimes="0;1" dur="1.639344262295082s" begin="-1.4255167498218104s" repeatCount="indefinite"></animate>
  </rect>
</g><g transform="rotate(46.95652173913044 50 50)">
  <rect x="45.5" y="29" rx="4.5" ry="6" width="9" height="12" fill="#77fe71">
    <animate attributeName="opacity" values="1;0" keyTimes="0;1" dur="1.639344262295082s" begin="-1.4017581373247803s" repeatCount="indefinite"></animate>
  </rect>
</g><g transform="rotate(52.17391304347826 50 50)">
  <rect x="45.5" y="29" rx="4.5" ry="6" width="9" height="12" fill="#77fe71">
    <animate attributeName="opacity" values="1;0" keyTimes="0;1" dur="1.639344262295082s" begin="-1.3779995248277501s" repeatCount="indefinite"></animate>
  </rect>
</g><g transform="rotate(57.391304347826086 50 50)">
  <rect x="45.5" y="29" rx="4.5" ry="6" width="9" height="12" fill="#77fe71">
    <animate attributeName="opacity" values="1;0" keyTimes="0;1" dur="1.639344262295082s" begin="-1.35424091233072s" repeatCount="indefinite"></animate>
  </rect>
</g><g transform="rotate(62.608695652173914 50 50)">
  <rect x="45.5" y="29" rx="4.5" ry="6" width="9" height="12" fill="#77fe71">
    <animate attributeName="opacity" values="1;0" keyTimes="0;1" dur="1.639344262295082s" begin="-1.3304822998336898s" repeatCount="indefinite"></animate>
  </rect>
</g><g transform="rotate(67.82608695652173 50 50)">
  <rect x="45.5" y="29" rx="4.5" ry="6" width="9" height="12" fill="#77fe71">
    <animate attributeName="opacity" values="1;0" keyTimes="0;1" dur="1.639344262295082s" begin="-1.3067236873366597s" repeatCount="indefinite"></animate>
  </rect>
</g><g transform="rotate(73.04347826086956 50 50)">
  <rect x="45.5" y="29" rx="4.5" ry="6" width="9" height="12" fill="#77fe71">
    <animate attributeName="opacity" values="1;0" keyTimes="0;1" dur="1.639344262295082s" begin="-1.2829650748396295s" repeatCount="indefinite"></animate>
  </rect>
</g><g transform="rotate(78.26086956521739 50 50)">
  <rect x="45.5" y="29" rx="4.5" ry="6" width="9" height="12" fill="#77fe71">
    <animate attributeName="opacity" values="1;0" keyTimes="0;1" dur="1.639344262295082s" begin="-1.2592064623425994s" repeatCount="indefinite"></animate>
  </rect>
</g><g transform="rotate(83.47826086956522 50 50)">
  <rect x="45.5" y="29" rx="4.5" ry="6" width="9" height="12" fill="#77fe71">
    <animate attributeName="opacity" values="1;0" keyTimes="0;1" dur="1.639344262295082s" begin="-1.2354478498455692s" repeatCount="indefinite"></animate>
  </rect>
</g><g transform="rotate(88.69565217391305 50 50)">
  <rect x="45.5" y="29" rx="4.5" ry="6" width="9" height="12" fill="#77fe71">
    <animate attributeName="opacity" values="1;0" keyTimes="0;1" dur="1.639344262295082s" begin="-1.211689237348539s" repeatCount="indefinite"></animate>
  </rect>
</g><g transform="rotate(93.91304347826087 50 50)">
  <rect x="45.5" y="29" rx="4.5" ry="6" width="9" height="12" fill="#77fe71">
    <animate attributeName="opacity" values="1;0" keyTimes="0;1" dur="1.639344262295082s" begin="-1.1879306248515087s" repeatCount="indefinite"></animate>
  </rect>
</g><g transform="rotate(99.1304347826087 50 50)">
  <rect x="45.5" y="29" rx="4.5" ry="6" width="9" height="12" fill="#77fe71">
    <animate attributeName="opacity" values="1;0" keyTimes="0;1" dur="1.639344262295082s" begin="-1.1641720123544785s" repeatCount="indefinite"></animate>
  </rect>
</g><g transform="rotate(104.34782608695652 50 50)">
  <rect x="45.5" y="29" rx="4.5" ry="6" width="9" height="12" fill="#77fe71">
    <animate attributeName="opacity" values="1;0" keyTimes="0;1" dur="1.639344262295082s" begin="-1.1404133998574484s" repeatCount="indefinite"></animate>
  </rect>
</g><g transform="rotate(109.56521739130434 50 50)">
  <rect x="45.5" y="29" rx="4.5" ry="6" width="9" height="12" fill="#77fe71">
    <animate attributeName="opacity" values="1;0" keyTimes="0;1" dur="1.639344262295082s" begin="-1.1166547873604182s" repeatCount="indefinite"></animate>
  </rect>
</g><g transform="rotate(114.78260869565217 50 50)">
  <rect x="45.5" y="29" rx="4.5" ry="6" width="9" height="12" fill="#77fe71">
    <animate attributeName="opacity" values="1;0" keyTimes="0;1" dur="1.639344262295082s" begin="-1.092896174863388s" repeatCount="indefinite"></animate>
  </rect>
</g><g transform="rotate(120 50 50)">
  <rect x="45.5" y="29" rx="4.5" ry="6" width="9" height="12" fill="#77fe71">
    <animate attributeName="opacity" values="1;0" keyTimes="0;1" dur="1.639344262295082s" begin="-1.069137562366358s" repeatCount="indefinite"></animate>
  </rect>
</g><g transform="rotate(125.21739130434783 50 50)">
  <rect x="45.5" y="29" rx="4.5" ry="6" width="9" height="12" fill="#77fe71">
    <animate attributeName="opacity" values="1;0" keyTimes="0;1" dur="1.639344262295082s" begin="-1.0453789498693278s" repeatCount="indefinite"></animate>
  </rect>
</g><g transform="rotate(130.43478260869566 50 50)">
  <rect x="45.5" y="29" rx="4.5" ry="6" width="9" height="12" fill="#77fe71">
    <animate attributeName="opacity" values="1;0" keyTimes="0;1" dur="1.639344262295082s" begin="-1.0216203373722976s" repeatCount="indefinite"></animate>
  </rect>
</g><g transform="rotate(135.65217391304347 50 50)">
  <rect x="45.5" y="29" rx="4.5" ry="6" width="9" height="12" fill="#77fe71">
    <animate attributeName="opacity" values="1;0" keyTimes="0;1" dur="1.639344262295082s" begin="-0.9978617248752674s" repeatCount="indefinite"></animate>
  </rect>
</g><g transform="rotate(140.8695652173913 50 50)">
  <rect x="45.5" y="29" rx="4.5" ry="6" width="9" height="12" fill="#77fe71">
    <animate attributeName="opacity" values="1;0" keyTimes="0;1" dur="1.639344262295082s" begin="-0.9741031123782372s" repeatCount="indefinite"></animate>
  </rect>
</g><g transform="rotate(146.08695652173913 50 50)">
  <rect x="45.5" y="29" rx="4.5" ry="6" width="9" height="12" fill="#77fe71">
    <animate attributeName="opacity" values="1;0" keyTimes="0;1" dur="1.639344262295082s" begin="-0.9503444998812071s" repeatCount="indefinite"></animate>
  </rect>
</g><g transform="rotate(151.30434782608697 50 50)">
  <rect x="45.5" y="29" rx="4.5" ry="6" width="9" height="12" fill="#77fe71">
    <animate attributeName="opacity" values="1;0" keyTimes="0;1" dur="1.639344262295082s" begin="-0.9265858873841768s" repeatCount="indefinite"></animate>
  </rect>
</g><g transform="rotate(156.52173913043478 50 50)">
  <rect x="45.5" y="29" rx="4.5" ry="6" width="9" height="12" fill="#77fe71">
    <animate attributeName="opacity" values="1;0" keyTimes="0;1" dur="1.639344262295082s" begin="-0.9028272748871466s" repeatCount="indefinite"></animate>
  </rect>
</g><g transform="rotate(161.7391304347826 50 50)">
  <rect x="45.5" y="29" rx="4.5" ry="6" width="9" height="12" fill="#77fe71">
    <animate attributeName="opacity" values="1;0" keyTimes="0;1" dur="1.639344262295082s" begin="-0.8790686623901165s" repeatCount="indefinite"></animate>
  </rect>
</g><g transform="rotate(166.95652173913044 50 50)">
  <rect x="45.5" y="29" rx="4.5" ry="6" width="9" height="12" fill="#77fe71">
    <animate attributeName="opacity" values="1;0" keyTimes="0;1" dur="1.639344262295082s" begin="-0.8553100498930863s" repeatCount="indefinite"></animate>
  </rect>
</g><g transform="rotate(172.17391304347825 50 50)">
  <rect x="45.5" y="29" rx="4.5" ry="6" width="9" height="12" fill="#77fe71">
    <animate attributeName="opacity" values="1;0" keyTimes="0;1" dur="1.639344262295082s" begin="-0.8315514373960562s" repeatCount="indefinite"></animate>
  </rect>
</g><g transform="rotate(177.3913043478261 50 50)">
  <rect x="45.5" y="29" rx="4.5" ry="6" width="9" height="12" fill="#77fe71">
    <animate attributeName="opacity" values="1;0" keyTimes="0;1" dur="1.639344262295082s" begin="-0.8077928248990259s" repeatCount="indefinite"></animate>
  </rect>
</g><g transform="rotate(182.6086956521739 50 50)">
  <rect x="45.5" y="29" rx="4.5" ry="6" width="9" height="12" fill="#77fe71">
    <animate attributeName="opacity" values="1;0" keyTimes="0;1" dur="1.639344262295082s" begin="-0.7840342124019958s" repeatCount="indefinite"></animate>
  </rect>
</g><g transform="rotate(187.82608695652175 50 50)">
  <rect x="45.5" y="29" rx="4.5" ry="6" width="9" height="12" fill="#77fe71">
    <animate attributeName="opacity" values="1;0" keyTimes="0;1" dur="1.639344262295082s" begin="-0.7602755999049656s" repeatCount="indefinite"></animate>
  </rect>
</g><g transform="rotate(193.04347826086956 50 50)">
  <rect x="45.5" y="29" rx="4.5" ry="6" width="9" height="12" fill="#77fe71">
    <animate attributeName="opacity" values="1;0" keyTimes="0;1" dur="1.639344262295082s" begin="-0.7365169874079355s" repeatCount="indefinite"></animate>
  </rect>
</g><g transform="rotate(198.2608695652174 50 50)">
  <rect x="45.5" y="29" rx="4.5" ry="6" width="9" height="12" fill="#77fe71">
    <animate attributeName="opacity" values="1;0" keyTimes="0;1" dur="1.639344262295082s" begin="-0.7127583749109052s" repeatCount="indefinite"></animate>
  </rect>
</g><g transform="rotate(203.47826086956522 50 50)">
  <rect x="45.5" y="29" rx="4.5" ry="6" width="9" height="12" fill="#77fe71">
    <animate attributeName="opacity" values="1;0" keyTimes="0;1" dur="1.639344262295082s" begin="-0.6889997624138751s" repeatCount="indefinite"></animate>
  </rect>
</g><g transform="rotate(208.69565217391303 50 50)">
  <rect x="45.5" y="29" rx="4.5" ry="6" width="9" height="12" fill="#77fe71">
    <animate attributeName="opacity" values="1;0" keyTimes="0;1" dur="1.639344262295082s" begin="-0.6652411499168449s" repeatCount="indefinite"></animate>
  </rect>
</g><g transform="rotate(213.91304347826087 50 50)">
  <rect x="45.5" y="29" rx="4.5" ry="6" width="9" height="12" fill="#77fe71">
    <animate attributeName="opacity" values="1;0" keyTimes="0;1" dur="1.639344262295082s" begin="-0.6414825374198148s" repeatCount="indefinite"></animate>
  </rect>
</g><g transform="rotate(219.1304347826087 50 50)">
  <rect x="45.5" y="29" rx="4.5" ry="6" width="9" height="12" fill="#77fe71">
    <animate attributeName="opacity" values="1;0" keyTimes="0;1" dur="1.639344262295082s" begin="-0.6177239249227846s" repeatCount="indefinite"></animate>
  </rect>
</g><g transform="rotate(224.34782608695653 50 50)">
  <rect x="45.5" y="29" rx="4.5" ry="6" width="9" height="12" fill="#77fe71">
    <animate attributeName="opacity" values="1;0" keyTimes="0;1" dur="1.639344262295082s" begin="-0.5939653124257543s" repeatCount="indefinite"></animate>
  </rect>
</g><g transform="rotate(229.56521739130434 50 50)">
  <rect x="45.5" y="29" rx="4.5" ry="6" width="9" height="12" fill="#77fe71">
    <animate attributeName="opacity" values="1;0" keyTimes="0;1" dur="1.639344262295082s" begin="-0.5702066999287242s" repeatCount="indefinite"></animate>
  </rect>
</g><g transform="rotate(234.7826086956522 50 50)">
  <rect x="45.5" y="29" rx="4.5" ry="6" width="9" height="12" fill="#77fe71">
    <animate attributeName="opacity" values="1;0" keyTimes="0;1" dur="1.639344262295082s" begin="-0.546448087431694s" repeatCount="indefinite"></animate>
  </rect>
</g><g transform="rotate(240 50 50)">
  <rect x="45.5" y="29" rx="4.5" ry="6" width="9" height="12" fill="#77fe71">
    <animate attributeName="opacity" values="1;0" keyTimes="0;1" dur="1.639344262295082s" begin="-0.5226894749346639s" repeatCount="indefinite"></animate>
  </rect>
</g><g transform="rotate(245.2173913043478 50 50)">
  <rect x="45.5" y="29" rx="4.5" ry="6" width="9" height="12" fill="#77fe71">
    <animate attributeName="opacity" values="1;0" keyTimes="0;1" dur="1.639344262295082s" begin="-0.4989308624376337s" repeatCount="indefinite"></animate>
  </rect>
</g><g transform="rotate(250.43478260869566 50 50)">
  <rect x="45.5" y="29" rx="4.5" ry="6" width="9" height="12" fill="#77fe71">
    <animate attributeName="opacity" values="1;0" keyTimes="0;1" dur="1.639344262295082s" begin="-0.47517224994060353s" repeatCount="indefinite"></animate>
  </rect>
</g><g transform="rotate(255.65217391304347 50 50)">
  <rect x="45.5" y="29" rx="4.5" ry="6" width="9" height="12" fill="#77fe71">
    <animate attributeName="opacity" values="1;0" keyTimes="0;1" dur="1.639344262295082s" begin="-0.4514136374435733s" repeatCount="indefinite"></animate>
  </rect>
</g><g transform="rotate(260.8695652173913 50 50)">
  <rect x="45.5" y="29" rx="4.5" ry="6" width="9" height="12" fill="#77fe71">
    <animate attributeName="opacity" values="1;0" keyTimes="0;1" dur="1.639344262295082s" begin="-0.42765502494654317s" repeatCount="indefinite"></animate>
  </rect>
</g><g transform="rotate(266.0869565217391 50 50)">
  <rect x="45.5" y="29" rx="4.5" ry="6" width="9" height="12" fill="#77fe71">
    <animate attributeName="opacity" values="1;0" keyTimes="0;1" dur="1.639344262295082s" begin="-0.40389641244951296s" repeatCount="indefinite"></animate>
  </rect>
</g><g transform="rotate(271.30434782608694 50 50)">
  <rect x="45.5" y="29" rx="4.5" ry="6" width="9" height="12" fill="#77fe71">
    <animate attributeName="opacity" values="1;0" keyTimes="0;1" dur="1.639344262295082s" begin="-0.3801377999524828s" repeatCount="indefinite"></animate>
  </rect>
</g><g transform="rotate(276.5217391304348 50 50)">
  <rect x="45.5" y="29" rx="4.5" ry="6" width="9" height="12" fill="#77fe71">
    <animate attributeName="opacity" values="1;0" keyTimes="0;1" dur="1.639344262295082s" begin="-0.3563791874554526s" repeatCount="indefinite"></animate>
  </rect>
</g><g transform="rotate(281.7391304347826 50 50)">
  <rect x="45.5" y="29" rx="4.5" ry="6" width="9" height="12" fill="#77fe71">
    <animate attributeName="opacity" values="1;0" keyTimes="0;1" dur="1.639344262295082s" begin="-0.33262057495842245s" repeatCount="indefinite"></animate>
  </rect>
</g><g transform="rotate(286.95652173913044 50 50)">
  <rect x="45.5" y="29" rx="4.5" ry="6" width="9" height="12" fill="#77fe71">
    <animate attributeName="opacity" values="1;0" keyTimes="0;1" dur="1.639344262295082s" begin="-0.3088619624613923s" repeatCount="indefinite"></animate>
  </rect>
</g><g transform="rotate(292.17391304347825 50 50)">
  <rect x="45.5" y="29" rx="4.5" ry="6" width="9" height="12" fill="#77fe71">
    <animate attributeName="opacity" values="1;0" keyTimes="0;1" dur="1.639344262295082s" begin="-0.2851033499643621s" repeatCount="indefinite"></animate>
  </rect>
</g><g transform="rotate(297.39130434782606 50 50)">
  <rect x="45.5" y="29" rx="4.5" ry="6" width="9" height="12" fill="#77fe71">
    <animate attributeName="opacity" values="1;0" keyTimes="0;1" dur="1.639344262295082s" begin="-0.26134473746733194s" repeatCount="indefinite"></animate>
  </rect>
</g><g transform="rotate(302.60869565217394 50 50)">
  <rect x="45.5" y="29" rx="4.5" ry="6" width="9" height="12" fill="#77fe71">
    <animate attributeName="opacity" values="1;0" keyTimes="0;1" dur="1.639344262295082s" begin="-0.23758612497030177s" repeatCount="indefinite"></animate>
  </rect>
</g><g transform="rotate(307.82608695652175 50 50)">
  <rect x="45.5" y="29" rx="4.5" ry="6" width="9" height="12" fill="#77fe71">
    <animate attributeName="opacity" values="1;0" keyTimes="0;1" dur="1.639344262295082s" begin="-0.21382751247327159s" repeatCount="indefinite"></animate>
  </rect>
</g><g transform="rotate(313.04347826086956 50 50)">
  <rect x="45.5" y="29" rx="4.5" ry="6" width="9" height="12" fill="#77fe71">
    <animate attributeName="opacity" values="1;0" keyTimes="0;1" dur="1.639344262295082s" begin="-0.1900688999762414s" repeatCount="indefinite"></animate>
  </rect>
</g><g transform="rotate(318.2608695652174 50 50)">
  <rect x="45.5" y="29" rx="4.5" ry="6" width="9" height="12" fill="#77fe71">
    <animate attributeName="opacity" values="1;0" keyTimes="0;1" dur="1.639344262295082s" begin="-0.16631028747921123s" repeatCount="indefinite"></animate>
  </rect>
</g><g transform="rotate(323.4782608695652 50 50)">
  <rect x="45.5" y="29" rx="4.5" ry="6" width="9" height="12" fill="#77fe71">
    <animate attributeName="opacity" values="1;0" keyTimes="0;1" dur="1.639344262295082s" begin="-0.14255167498218105s" repeatCount="indefinite"></animate>
  </rect>
</g><g transform="rotate(328.69565217391306 50 50)">
  <rect x="45.5" y="29" rx="4.5" ry="6" width="9" height="12" fill="#77fe71">
    <animate attributeName="opacity" values="1;0" keyTimes="0;1" dur="1.639344262295082s" begin="-0.11879306248515088s" repeatCount="indefinite"></animate>
  </rect>
</g><g transform="rotate(333.9130434782609 50 50)">
  <rect x="45.5" y="29" rx="4.5" ry="6" width="9" height="12" fill="#77fe71">
    <animate attributeName="opacity" values="1;0" keyTimes="0;1" dur="1.639344262295082s" begin="-0.0950344499881207s" repeatCount="indefinite"></animate>
  </rect>
</g><g transform="rotate(339.1304347826087 50 50)">
  <rect x="45.5" y="29" rx="4.5" ry="6" width="9" height="12" fill="#77fe71">
    <animate attributeName="opacity" values="1;0" keyTimes="0;1" dur="1.639344262295082s" begin="-0.07127583749109052s" repeatCount="indefinite"></animate>
  </rect>
</g><g transform="rotate(344.3478260869565 50 50)">
  <rect x="45.5" y="29" rx="4.5" ry="6" width="9" height="12" fill="#77fe71">
    <animate attributeName="opacity" values="1;0" keyTimes="0;1" dur="1.639344262295082s" begin="-0.04751722499406035s" repeatCount="indefinite"></animate>
  </rect>
</g><g transform="rotate(349.5652173913044 50 50)">
  <rect x="45.5" y="29" rx="4.5" ry="6" width="9" height="12" fill="#77fe71">
    <animate attributeName="opacity" values="1;0" keyTimes="0;1" dur="1.639344262295082s" begin="-0.023758612497030176s" repeatCount="indefinite"></animate>
  </rect>
</g><g transform="rotate(354.7826086956522 50 50)">
  <rect x="45.5" y="29" rx="4.5" ry="6" width="9" height="12" fill="#77fe71">
    <animate attributeName="opacity" values="1;0" keyTimes="0;1" dur="1.639344262295082s" begin="0s" repeatCount="indefinite"></animate>
  </rect>
</g>
<!-- [ldio] generated by https://loading.io/ --></svg>